<svg width="1188" height="1140" viewBox="0 0 1188 1140" fill="none" xmlns="http://www.w3.org/2000/svg">
<path d="M184.593 389.066C407.971 389.066 672.29 539.154 969.649 539.154C992.634 539.154 1003.41 526.768 1003.41 507.825C1003.41 490.339 989.761 475.039 961.748 465.567C843.236 421.852 607.647 340.979 607.647 170.489C607.647 73.5873 681.628 0 800.14 0C829.589 0 844.672 12.386 854.01 42.2581C907.879 210.562 1003.41 442.252 1154.24 515.111C1180.1 528.954 1188 549.355 1188 569.755C1188 590.156 1180.1 609.099 1154.24 624.399C1003.41 702.358 903.57 928.949 854.01 1097.25C846.109 1123.48 829.589 1139.51 800.14 1139.51C681.628 1139.51 607.647 1065.92 607.647 969.021C607.647 798.531 843.236 717.658 961.748 673.943C989.761 664.471 1003.41 649.171 1003.41 631.685C1003.41 612.742 992.634 600.356 969.649 600.356C672.29 600.356 407.971 750.445 184.593 750.445C29.4486 751.173 0 658.643 0 569.755C0 480.867 29.4486 389.066 184.593 389.066Z" fill="black"/>
</svg>
