<svg width="128" height="128" viewBox="0 0 128 128" fill="none" xmlns="http://www.w3.org/2000/svg">
<path fill-rule="evenodd" clip-rule="evenodd" d="M63.9993 5.10303C30.6523 5.10303 3.61133 32.138 3.61133 65.491C3.61133 92.173 20.9143 114.808 44.9083 122.794C47.9253 123.354 49.0333 121.484 49.0333 119.889C49.0333 118.449 48.9773 113.692 48.9513 108.646C32.1513 112.299 28.6063 101.521 28.6063 101.521C25.8593 94.541 21.9013 92.685 21.9013 92.685C16.4213 88.937 22.3143 89.015 22.3143 89.015C28.3773 89.44 31.5713 95.238 31.5713 95.238C36.9573 104.468 45.6983 101.8 49.1443 100.258C49.6863 96.355 51.2513 93.69 52.9783 92.182C39.5653 90.657 25.4643 85.478 25.4643 62.339C25.4643 55.746 27.8243 50.359 31.6873 46.129C31.0593 44.609 28.9923 38.467 32.2713 30.149C32.2713 30.149 37.3413 28.526 48.8813 36.339C53.6993 35 58.8663 34.327 63.9993 34.304C69.1293 34.327 74.2993 34.998 79.1263 36.337C90.6523 28.524 95.7163 30.147 95.7163 30.147C99.0033 38.464 96.9363 44.607 96.3093 46.127C100.181 50.357 102.524 55.744 102.524 62.337C102.524 85.531 88.3973 90.637 74.9503 92.133C77.1173 94.007 79.0473 97.683 79.0473 103.316C79.0473 111.396 78.9773 117.899 78.9773 119.888C78.9773 121.495 80.0653 123.378 83.1253 122.785C107.105 114.791 124.388 92.163 124.388 65.491C124.387 32.14 97.3493 5.10403 63.9993 5.10403V5.10303Z" fill="black"/>
<path d="M26.4836 91.8059C26.3506 92.1059 25.8786 92.1959 25.4486 91.9909C25.0086 91.7949 24.7636 91.3859 24.9056 91.0849C25.0356 90.7749 25.5086 90.6899 25.9456 90.8969C26.3856 91.0939 26.6356 91.5069 26.4826 91.8069L26.4836 91.8059ZM28.9296 94.5349C28.6426 94.8019 28.0796 94.6779 27.6976 94.2549C27.3016 93.8349 27.2276 93.2719 27.5206 93.0009C27.8186 92.7349 28.3646 92.8609 28.7606 93.2809C29.1546 93.7069 29.2326 94.2649 28.9306 94.5359L28.9296 94.5349ZM31.3116 98.0119C30.9416 98.2699 30.3356 98.0289 29.9616 97.4919C29.5916 96.9539 29.5916 96.3089 29.9716 96.0519C30.3446 95.7939 30.9416 96.0269 31.3216 96.5589C31.6896 97.1039 31.6896 97.7489 31.3116 98.0109V98.0119ZM34.5726 101.373C34.2426 101.738 33.5366 101.64 33.0206 101.143C32.4936 100.656 32.3466 99.9629 32.6776 99.5989C33.0136 99.2329 33.7226 99.3349 34.2416 99.8289C34.7686 100.315 34.9276 101.009 34.5746 101.372L34.5726 101.373ZM39.0726 103.324C38.9256 103.797 38.2476 104.012 37.5626 103.81C36.8796 103.603 36.4326 103.05 36.5726 102.572C36.7126 102.095 37.3956 101.872 38.0846 102.087C38.7676 102.293 39.2146 102.843 39.0726 103.324ZM44.0156 103.685C44.0326 104.183 43.4526 104.595 42.7356 104.605C42.0126 104.622 41.4276 104.218 41.4206 103.728C41.4206 103.225 41.9886 102.818 42.7106 102.804C43.4276 102.791 44.0166 103.191 44.0166 103.684L44.0156 103.685ZM48.6136 102.903C48.6996 103.388 48.2006 103.887 47.4876 104.02C46.7876 104.15 46.1376 103.848 46.0476 103.367C45.9616 102.869 46.4696 102.37 47.1696 102.241C47.8836 102.118 48.5236 102.411 48.6136 102.904V102.903Z" fill="black"/>
</svg>
